<svg xmlns="http://www.w3.org/2000/svg" xmlns:xlink="http://www.w3.org/1999/xlink" width="500" zoomAndPan="magnify" viewBox="0 0 375 112.499997" height="150" preserveAspectRatio="xMidYMid meet" version="1.0"><defs><g/><clipPath id="ea3707457d"><path d="M 0.828125 0 L 374.167969 0 L 374.167969 112.003906 L 0.828125 112.003906 Z M 0.828125 0 " clip-rule="nonzero"/></clipPath><clipPath id="3ee1e754de"><path d="M 27 87 L 50 87 L 50 103.414062 L 27 103.414062 Z M 27 87 " clip-rule="nonzero"/></clipPath><clipPath id="26fcd8c36c"><path d="M 17 26 L 88.9375 26 L 88.9375 103.414062 L 17 103.414062 Z M 17 26 " clip-rule="nonzero"/></clipPath><clipPath id="53b41f44ec"><path d="M 34 7.839844 L 68 7.839844 L 68 35 L 34 35 Z M 34 7.839844 " clip-rule="nonzero"/></clipPath><clipPath id="7997607c38"><path d="M 0.828125 27 L 22 27 L 22 100 L 0.828125 100 Z M 0.828125 27 " clip-rule="nonzero"/></clipPath></defs><g clip-path="url(#ea3707457d)"><path fill="#ffffff" d="M 0.828125 0 L 374.171875 0 L 374.171875 112.003906 L 0.828125 112.003906 Z M 0.828125 0 " fill-opacity="1" fill-rule="nonzero"/><path fill="#ffffff" d="M 0.828125 0 L 374.171875 0 L 374.171875 112.003906 L 0.828125 112.003906 Z M 0.828125 0 " fill-opacity="1" fill-rule="nonzero"/></g><path fill="#336dbf" d="M 33.527344 78.699219 L 22.9375 72.183594 L 17.503906 77.617188 L 13.234375 98.992188 L 33.527344 78.699219 " fill-opacity="1" fill-rule="nonzero"/><g clip-path="url(#3ee1e754de)"><path fill="#336dbf" d="M 42.800781 87.972656 L 27.128906 103.644531 L 44.238281 103.644531 L 49.320312 98.5625 L 42.800781 87.972656 " fill-opacity="1" fill-rule="nonzero"/></g><g clip-path="url(#26fcd8c36c)"><path fill="#40c6ff" d="M 65.921875 36.378906 C 64.316406 36.378906 63.011719 35.078125 63.011719 33.46875 C 63.011719 31.859375 64.316406 30.558594 65.921875 30.558594 C 67.53125 30.558594 68.835938 31.859375 68.835938 33.46875 C 68.835938 35.078125 67.53125 36.378906 65.921875 36.378906 Z M 35.832031 36.378906 C 34.222656 36.378906 32.917969 35.078125 32.917969 33.46875 C 32.917969 31.859375 34.222656 30.558594 35.832031 30.558594 C 37.4375 30.558594 38.742188 31.859375 38.742188 33.46875 C 38.742188 35.078125 37.4375 36.378906 35.832031 36.378906 Z M 89.050781 101.65625 L 77.167969 27.394531 C 77.011719 26.617188 76.328125 26.054688 75.535156 26.054688 L 26.21875 26.054688 C 25.425781 26.054688 24.742188 26.617188 24.585938 27.394531 L 17.503906 77.617188 L 22.9375 72.183594 L 58.972656 62.527344 L 49.320312 98.5625 L 44.238281 103.644531 L 87.417969 103.644531 C 88.46875 103.644531 89.253906 102.6875 89.050781 101.65625 " fill-opacity="1" fill-rule="nonzero"/></g><g clip-path="url(#53b41f44ec)"><path fill="#336dbf" d="M 65.925781 34.738281 C 65.222656 34.738281 64.65625 34.167969 64.65625 33.46875 C 64.65625 26.503906 63.203125 20.589844 60.453125 16.351562 C 57.972656 12.527344 54.570312 10.421875 50.875 10.421875 C 47.183594 10.421875 43.78125 12.527344 41.300781 16.351562 C 38.550781 20.589844 37.097656 26.503906 37.097656 33.46875 C 37.097656 34.167969 36.53125 34.738281 35.832031 34.738281 C 35.128906 34.738281 34.5625 34.167969 34.5625 33.46875 C 34.5625 26.015625 36.15625 19.617188 39.175781 14.972656 C 42.140625 10.40625 46.296875 7.890625 50.875 7.890625 C 55.457031 7.890625 59.613281 10.40625 62.578125 14.972656 C 65.597656 19.617188 67.191406 26.015625 67.191406 33.46875 C 67.191406 34.167969 66.621094 34.738281 65.925781 34.738281 " fill-opacity="1" fill-rule="nonzero"/></g><g clip-path="url(#7997607c38)"><path fill="#336dbf" d="M 21.648438 27.394531 L 0.824219 97.769531 L 6.941406 95.808594 L 9.84375 99.441406 L 21.648438 27.394531 " fill-opacity="1" fill-rule="nonzero"/></g><g fill="#000000" fill-opacity="1"><g transform="translate(118.083863, 71.965544)"><g><path d="M 20.3125 -45.515625 L 26.234375 -45.515625 C 26.835938 -45.515625 27.140625 -45.210938 27.140625 -44.609375 L 27.140625 -0.90625 C 27.140625 -0.300781 26.835938 0 26.234375 0 L 20.59375 0 C 20.0625 0 19.722656 -0.242188 19.578125 -0.734375 L 10.859375 -25.03125 L 10.578125 -25.03125 L 10.578125 -0.90625 C 10.578125 -0.300781 10.273438 0 9.671875 0 L 3.75 0 C 3.144531 0 2.84375 -0.300781 2.84375 -0.90625 L 2.84375 -44.609375 C 2.84375 -45.210938 3.144531 -45.515625 3.75 -45.515625 L 9.390625 -45.515625 C 9.921875 -45.515625 10.257812 -45.265625 10.40625 -44.765625 L 19.0625 -20.59375 L 19.40625 -20.59375 L 19.40625 -44.609375 C 19.40625 -45.210938 19.707031 -45.515625 20.3125 -45.515625 Z M 20.3125 -45.515625 "/></g></g></g><g fill="#000000" fill-opacity="1"><g transform="translate(148.062839, 71.965544)"><g><path d="M 25.546875 -44.609375 L 25.546875 -38.90625 C 25.546875 -38.269531 25.242188 -37.953125 24.640625 -37.953125 L 10.40625 -37.953125 L 10.40625 -26.5625 L 21.28125 -26.5625 C 21.882812 -26.5625 22.1875 -26.238281 22.1875 -25.59375 L 22.1875 -19.96875 C 22.1875 -19.320312 21.882812 -19 21.28125 -19 L 10.40625 -19 L 10.40625 -7.515625 L 24.640625 -7.515625 C 25.242188 -7.515625 25.546875 -7.207031 25.546875 -6.59375 L 25.546875 -0.90625 C 25.546875 -0.300781 25.242188 0 24.640625 0 L 3.703125 0 C 3.128906 0 2.84375 -0.300781 2.84375 -0.90625 L 2.84375 -44.609375 C 2.84375 -45.210938 3.128906 -45.515625 3.703125 -45.515625 L 24.640625 -45.515625 C 25.242188 -45.515625 25.546875 -45.210938 25.546875 -44.609375 Z M 25.546875 -44.609375 "/></g></g></g><g fill="#000000" fill-opacity="1"><g transform="translate(176.448999, 71.965544)"><g><path d="M 11.03125 -45.515625 L 17.40625 -45.515625 C 20.101562 -45.515625 22.140625 -44.820312 23.515625 -43.4375 C 24.898438 -42.050781 25.59375 -40.015625 25.59375 -37.328125 L 25.59375 -31.296875 C 25.59375 -30.679688 25.289062 -30.375 24.6875 -30.375 L 18.78125 -30.375 C 18.164062 -30.375 17.859375 -30.679688 17.859375 -31.296875 L 17.859375 -35.734375 C 17.859375 -37.242188 17.101562 -38 15.59375 -38 L 12.859375 -38 C 11.335938 -38 10.578125 -37.242188 10.578125 -35.734375 L 10.578125 -27.875 L 24.125 -23.4375 C 25.101562 -23.019531 25.59375 -22.316406 25.59375 -21.328125 L 25.59375 -8.1875 C 25.59375 -5.53125 24.898438 -3.5 23.515625 -2.09375 C 22.140625 -0.695312 20.101562 0 17.40625 0 L 11.03125 0 C 8.375 0 6.34375 -0.695312 4.9375 -2.09375 C 3.539062 -3.5 2.84375 -5.53125 2.84375 -8.1875 L 2.84375 -14.171875 C 2.84375 -14.773438 3.144531 -15.078125 3.75 -15.078125 L 9.671875 -15.078125 C 10.273438 -15.078125 10.578125 -14.773438 10.578125 -14.171875 L 10.578125 -9.78125 C 10.578125 -8.269531 11.335938 -7.515625 12.859375 -7.515625 L 15.59375 -7.515625 C 17.101562 -7.515625 17.859375 -8.269531 17.859375 -9.78125 L 17.859375 -17.359375 L 4.375 -21.796875 C 3.351562 -22.128906 2.84375 -22.828125 2.84375 -23.890625 L 2.84375 -37.328125 C 2.84375 -40.015625 3.539062 -42.050781 4.9375 -43.4375 C 6.34375 -44.820312 8.375 -45.515625 11.03125 -45.515625 Z M 11.03125 -45.515625 "/></g></g></g><g fill="#000000" fill-opacity="1"><g transform="translate(204.892049, 71.965544)"><g><path d="M 2.609375 -45.515625 L 23.546875 -45.515625 C 24.160156 -45.515625 24.46875 -45.210938 24.46875 -44.609375 L 24.46875 -38.90625 C 24.46875 -38.300781 24.160156 -38 23.546875 -38 L 16.953125 -38 L 16.953125 -0.90625 C 16.953125 -0.300781 16.648438 0 16.046875 0 L 10.125 0 C 9.519531 0 9.21875 -0.300781 9.21875 -0.90625 L 9.21875 -38 L 2.609375 -38 C 2.003906 -38 1.703125 -38.300781 1.703125 -38.90625 L 1.703125 -44.609375 C 1.703125 -45.210938 2.003906 -45.515625 2.609375 -45.515625 Z M 2.609375 -45.515625 "/></g></g></g><g fill="#000000" fill-opacity="1"><g transform="translate(231.059663, 71.965544)"><g/></g></g><g fill="#000000" fill-opacity="1"><g transform="translate(245.281187, 71.965544)"><g><path d="M 26.625 -45.515625 L 34.140625 -45.515625 C 34.890625 -45.515625 35.265625 -45.132812 35.265625 -44.375 L 35.265625 -1.140625 C 35.265625 -0.378906 34.890625 0 34.140625 0 L 28.84375 0 C 28.082031 0 27.703125 -0.378906 27.703125 -1.140625 L 27.703125 -26.734375 L 27.3125 -26.734375 L 21.671875 -1.03125 C 21.523438 -0.34375 21.109375 0 20.421875 0 L 17.640625 0 C 16.992188 0 16.578125 -0.34375 16.390625 -1.03125 L 10.75 -26.734375 L 10.359375 -26.734375 L 10.359375 -1.140625 C 10.359375 -0.378906 9.976562 0 9.21875 0 L 3.984375 0 C 3.222656 0 2.84375 -0.378906 2.84375 -1.140625 L 2.84375 -44.375 C 2.84375 -45.132812 3.222656 -45.515625 3.984375 -45.515625 L 11.484375 -45.515625 C 12.171875 -45.515625 12.59375 -45.171875 12.75 -44.484375 L 19.0625 -16.15625 L 25.375 -44.484375 C 25.5625 -45.171875 25.976562 -45.515625 26.625 -45.515625 Z M 26.625 -45.515625 "/></g></g></g><g fill="#000000" fill-opacity="1"><g transform="translate(283.394874, 71.965544)"><g><path d="M 30.265625 0 L 24.234375 0 C 23.742188 0 23.441406 -0.265625 23.328125 -0.796875 L 21.734375 -9.109375 L 11.609375 -9.109375 L 10.0625 -0.796875 C 9.957031 -0.265625 9.65625 0 9.15625 0 L 3.078125 0 C 2.390625 0 2.140625 -0.320312 2.328125 -0.96875 L 11.78125 -44.71875 C 11.894531 -45.25 12.21875 -45.515625 12.75 -45.515625 L 20.65625 -45.515625 C 21.1875 -45.515625 21.507812 -45.25 21.625 -44.71875 L 31.0625 -0.96875 C 31.175781 -0.320312 30.910156 0 30.265625 0 Z M 20.3125 -15.703125 L 16.671875 -35.5625 L 13.03125 -15.703125 Z M 20.3125 -15.703125 "/></g></g></g><g fill="#000000" fill-opacity="1"><g transform="translate(316.730131, 71.965544)"><g><path d="M 26.234375 -37.328125 L 26.234375 -23.4375 C 26.234375 -19.644531 24.847656 -17.140625 22.078125 -15.921875 L 26 -1.03125 C 26.1875 -0.34375 25.921875 0 25.203125 0 L 19.28125 0 C 18.75 0 18.425781 -0.265625 18.3125 -0.796875 L 14.5 -15.25 L 10.578125 -15.25 L 10.578125 -0.90625 C 10.578125 -0.300781 10.273438 0 9.671875 0 L 3.75 0 C 3.144531 0 2.84375 -0.300781 2.84375 -0.90625 L 2.84375 -44.609375 C 2.84375 -45.210938 3.144531 -45.515625 3.75 -45.515625 L 18.03125 -45.515625 C 20.726562 -45.515625 22.769531 -44.820312 24.15625 -43.4375 C 25.539062 -42.050781 26.234375 -40.015625 26.234375 -37.328125 Z M 10.578125 -22.75 L 16.21875 -22.75 C 17.726562 -22.75 18.484375 -23.507812 18.484375 -25.03125 L 18.484375 -35.734375 C 18.484375 -37.242188 17.726562 -38 16.21875 -38 L 10.578125 -38 Z M 10.578125 -22.75 "/></g></g></g><g fill="#000000" fill-opacity="1"><g transform="translate(345.798929, 71.965544)"><g><path d="M 2.609375 -45.515625 L 23.546875 -45.515625 C 24.160156 -45.515625 24.46875 -45.210938 24.46875 -44.609375 L 24.46875 -38.90625 C 24.46875 -38.300781 24.160156 -38 23.546875 -38 L 16.953125 -38 L 16.953125 -0.90625 C 16.953125 -0.300781 16.648438 0 16.046875 0 L 10.125 0 C 9.519531 0 9.21875 -0.300781 9.21875 -0.90625 L 9.21875 -38 L 2.609375 -38 C 2.003906 -38 1.703125 -38.300781 1.703125 -38.90625 L 1.703125 -44.609375 C 1.703125 -45.210938 2.003906 -45.515625 2.609375 -45.515625 Z M 2.609375 -45.515625 "/></g></g></g><g fill="#000000" fill-opacity="1"><g transform="translate(143.363157, 98.354326)"><g><path d="M 10.046875 -3.796875 C 10.046875 -3.191406 9.914062 -2.640625 9.65625 -2.140625 C 9.40625 -1.640625 9.066406 -1.210938 8.640625 -0.859375 C 8.222656 -0.503906 7.738281 -0.226562 7.1875 -0.03125 C 6.632812 0.15625 6.0625 0.25 5.46875 0.25 C 4.644531 0.25 3.890625 0.0976562 3.203125 -0.203125 C 2.515625 -0.503906 1.972656 -0.953125 1.578125 -1.546875 L 1.578125 0 L 0.28125 0 L 0.28125 -4.4375 L 1.578125 -4.4375 C 1.578125 -3.9375 1.691406 -3.476562 1.921875 -3.0625 C 2.148438 -2.65625 2.441406 -2.300781 2.796875 -2 C 3.160156 -1.695312 3.570312 -1.460938 4.03125 -1.296875 C 4.5 -1.128906 4.976562 -1.046875 5.46875 -1.046875 C 5.894531 -1.046875 6.289062 -1.109375 6.65625 -1.234375 C 7.019531 -1.359375 7.335938 -1.53125 7.609375 -1.75 C 7.890625 -1.976562 8.109375 -2.253906 8.265625 -2.578125 C 8.429688 -2.910156 8.515625 -3.285156 8.515625 -3.703125 C 8.515625 -4.179688 8.410156 -4.585938 8.203125 -4.921875 C 8.003906 -5.253906 7.726562 -5.539062 7.375 -5.78125 C 7.03125 -6.019531 6.640625 -6.222656 6.203125 -6.390625 C 5.773438 -6.554688 5.335938 -6.722656 4.890625 -6.890625 C 4.367188 -7.078125 3.84375 -7.269531 3.3125 -7.46875 C 2.78125 -7.675781 2.304688 -7.9375 1.890625 -8.25 C 1.472656 -8.5625 1.132812 -8.941406 0.875 -9.390625 C 0.613281 -9.847656 0.484375 -10.410156 0.484375 -11.078125 C 0.484375 -11.671875 0.609375 -12.203125 0.859375 -12.671875 C 1.109375 -13.140625 1.4375 -13.53125 1.84375 -13.84375 C 2.257812 -14.164062 2.738281 -14.410156 3.28125 -14.578125 C 3.832031 -14.742188 4.394531 -14.828125 4.96875 -14.828125 C 5.675781 -14.828125 6.328125 -14.679688 6.921875 -14.390625 C 7.523438 -14.097656 7.992188 -13.65625 8.328125 -13.0625 L 8.328125 -14.59375 L 9.671875 -14.59375 L 9.671875 -10.421875 L 8.328125 -10.421875 C 8.328125 -10.859375 8.234375 -11.269531 8.046875 -11.65625 C 7.867188 -12.039062 7.625 -12.367188 7.3125 -12.640625 C 7 -12.910156 6.640625 -13.125 6.234375 -13.28125 C 5.835938 -13.445312 5.414062 -13.53125 4.96875 -13.53125 C 4.570312 -13.53125 4.191406 -13.484375 3.828125 -13.390625 C 3.472656 -13.296875 3.160156 -13.148438 2.890625 -12.953125 C 2.628906 -12.753906 2.414062 -12.5 2.25 -12.1875 C 2.09375 -11.875 2.015625 -11.503906 2.015625 -11.078125 C 2.015625 -10.691406 2.109375 -10.363281 2.296875 -10.09375 C 2.484375 -9.832031 2.738281 -9.597656 3.0625 -9.390625 C 3.382812 -9.191406 3.753906 -9.003906 4.171875 -8.828125 C 4.597656 -8.660156 5.03125 -8.492188 5.46875 -8.328125 C 6.019531 -8.128906 6.566406 -7.910156 7.109375 -7.671875 C 7.648438 -7.441406 8.132812 -7.15625 8.5625 -6.8125 C 9 -6.476562 9.351562 -6.066406 9.625 -5.578125 C 9.90625 -5.085938 10.046875 -4.492188 10.046875 -3.796875 Z M 10.046875 -3.796875 "/></g></g></g><g fill="#000000" fill-opacity="1"><g transform="translate(160.710356, 98.354326)"><g><path d="M 9.875 0 L 0.546875 0 L 0.546875 -14.59375 L 9.875 -14.59375 L 9.875 -13.28125 L 2.078125 -13.28125 L 2.078125 -8.0625 L 7.828125 -8.0625 L 7.828125 -6.75 L 2.078125 -6.75 L 2.078125 -1.3125 L 9.875 -1.3125 Z M 9.875 0 "/></g></g></g><g fill="#000000" fill-opacity="1"><g transform="translate(178.057556, 98.354326)"><g><path d="M 9.875 0 L 0.546875 0 L 0.546875 -14.59375 L 2.078125 -14.59375 L 2.078125 -1.3125 L 9.875 -1.3125 Z M 9.875 0 "/></g></g></g><g fill="#000000" fill-opacity="1"><g transform="translate(195.404758, 98.354326)"><g><path d="M 9.875 0 L 0.546875 0 L 0.546875 -14.59375 L 2.078125 -14.59375 L 2.078125 -1.3125 L 9.875 -1.3125 Z M 9.875 0 "/></g></g></g><g fill="#000000" fill-opacity="1"><g transform="translate(212.751956, 98.354326)"><g><path d="M 9.875 0 L 0.546875 0 L 0.546875 -14.59375 L 9.875 -14.59375 L 9.875 -13.28125 L 2.078125 -13.28125 L 2.078125 -8.0625 L 7.828125 -8.0625 L 7.828125 -6.75 L 2.078125 -6.75 L 2.078125 -1.3125 L 9.875 -1.3125 Z M 9.875 0 "/></g></g></g><g fill="#000000" fill-opacity="1"><g transform="translate(230.099153, 98.354326)"><g><path d="M 10.546875 0 L 8.609375 0 L 4.34375 -6.25 L 2.078125 -6.25 L 2.078125 0 L 0.546875 0 L 0.546875 -14.59375 L 5.359375 -14.59375 C 6.953125 -14.59375 8.1875 -14.242188 9.0625 -13.546875 C 9.945312 -12.847656 10.390625 -11.804688 10.390625 -10.421875 C 10.390625 -9.804688 10.28125 -9.253906 10.0625 -8.765625 C 9.851562 -8.273438 9.5625 -7.859375 9.1875 -7.515625 C 8.8125 -7.179688 8.363281 -6.90625 7.84375 -6.6875 C 7.332031 -6.476562 6.769531 -6.351562 6.15625 -6.3125 Z M 8.8125 -10.421875 C 8.8125 -11.410156 8.503906 -12.132812 7.890625 -12.59375 C 7.273438 -13.050781 6.429688 -13.28125 5.359375 -13.28125 L 2.078125 -13.28125 L 2.078125 -7.5625 L 5.359375 -7.5625 C 6.429688 -7.5625 7.273438 -7.785156 7.890625 -8.234375 C 8.503906 -8.679688 8.8125 -9.410156 8.8125 -10.421875 Z M 8.8125 -10.421875 "/></g></g></g><g fill="#000000" fill-opacity="1"><g transform="translate(247.44635, 98.354326)"><g/></g></g><g fill="#000000" fill-opacity="1"><g transform="translate(264.793548, 98.354326)"><g><path d="M 10.390625 -10.421875 C 10.390625 -9.003906 9.945312 -7.953125 9.0625 -7.265625 C 8.1875 -6.585938 6.957031 -6.25 5.375 -6.25 L 2.078125 -6.25 L 2.078125 0 L 0.546875 0 L 0.546875 -14.59375 L 5.359375 -14.59375 C 6.953125 -14.59375 8.1875 -14.242188 9.0625 -13.546875 C 9.945312 -12.847656 10.390625 -11.804688 10.390625 -10.421875 Z M 8.859375 -10.421875 C 8.859375 -11.421875 8.539062 -12.144531 7.90625 -12.59375 C 7.28125 -13.050781 6.4375 -13.28125 5.375 -13.28125 L 2.078125 -13.28125 L 2.078125 -7.5625 L 5.375 -7.5625 C 6.4375 -7.5625 7.28125 -7.785156 7.90625 -8.234375 C 8.539062 -8.679688 8.859375 -9.410156 8.859375 -10.421875 Z M 8.859375 -10.421875 "/></g></g></g><g fill="#000000" fill-opacity="1"><g transform="translate(282.140745, 98.354326)"><g><path d="M 11.125 0 L 9.484375 0 L 8.109375 -4.171875 L 2.34375 -4.171875 L 0.984375 0 L -0.65625 0 L 4.1875 -14.59375 L 6.265625 -14.59375 Z M 7.671875 -5.515625 L 5.21875 -13.046875 L 2.765625 -5.515625 Z M 7.671875 -5.515625 "/></g></g></g><g fill="#000000" fill-opacity="1"><g transform="translate(299.487943, 98.354326)"><g><path d="M 9.875 0 L 7.96875 0 L 2.078125 -12.34375 L 2.078125 0 L 0.546875 0 L 0.546875 -14.59375 L 2.703125 -14.59375 L 8.328125 -2.8125 L 8.328125 -14.59375 L 9.875 -14.59375 Z M 9.875 0 "/></g></g></g><g fill="#000000" fill-opacity="1"><g transform="translate(316.835149, 98.354326)"><g><path d="M 9.875 0 L 0.546875 0 L 0.546875 -14.59375 L 9.875 -14.59375 L 9.875 -13.28125 L 2.078125 -13.28125 L 2.078125 -8.0625 L 7.828125 -8.0625 L 7.828125 -6.75 L 2.078125 -6.75 L 2.078125 -1.3125 L 9.875 -1.3125 Z M 9.875 0 "/></g></g></g><g fill="#000000" fill-opacity="1"><g transform="translate(334.182356, 98.354326)"><g><path d="M 9.875 0 L 0.546875 0 L 0.546875 -14.59375 L 2.078125 -14.59375 L 2.078125 -1.3125 L 9.875 -1.3125 Z M 9.875 0 "/></g></g></g></svg>